/* XPM */
static char * down_xpm[] = {
"16 16 27 1",
" 	c None",
".	c #000000",
"+	c #E5E5E5",
"@	c #CACACA",
"#	c #AAAAAA",
"$	c #D6D6D6",
"%	c #ACACAC",
"&	c #DBDBDB",
"*	c #DADADA",
"=	c #BFBFBF",
"-	c #EBEBEB",
";	c #9A9A9A",
">	c #ECECEC",
",	c #A8A8A8",
"'	c #9E9E9E",
")	c #BEBEBE",
"!	c #E8E8E8",
"~	c #9B9B9B",
"{	c #C7C7C7",
"]	c #C5C5C5",
"^	c #E7E7E7",
"/	c #9C9C9C",
"(	c #A6A6A6",
"_	c #EAEAEA",
":	c #9D9D9D",
"<	c #A5A5A5",
"[	c #ABABAB",
"                ",
"                ",
"                ",
" .+         .+  ",
"...@       ...@ ",
"...#$      ...%&",
"*...=-    ...;#*",
">...,$    ...'=-",
" $...)!  ...~#$ ",
"  {...]^.../({  ",
"  _]......:(]_  ",
"   _]..../<]_   ",
"    _]..;<]_    ",
"     _{[[{_     ",
"       &&       ",
"                "};
