/* XPM */
static char * up_xpm[] = {
"16 16 26 1",
" 	c None",
".	c #000000",
"+	c #DBDBDB",
"@	c #C7C7C7",
"#	c #EAEAEA",
"$	c #C5C5C5",
"%	c #9C9C9C",
"&	c #9D9D9D",
"*	c #A5A5A5",
"=	c #BBBBBB",
"-	c #E7E7E7",
";	c #9E9E9E",
">	c #BEBEBE",
",	c #E8E8E8",
"'	c #A9A9A9",
")	c #D6D6D6",
"!	c #9A9A9A",
"~	c #A8A8A8",
"{	c #BFBFBF",
"]	c #EBEBEB",
"^	c #AAAAAA",
"/	c #DADADA",
"(	c #ACACAC",
"_	c #CACACA",
":	c #B8B8B8",
"<	c #E5E5E5",
"                ",
"                ",
"                ",
"      ..+       ",
"     ....@#     ",
"    ......$#    ",
"   ...%&...$#   ",
"  ...&*==...$#  ",
" ...%*$--$...@  ",
" ...;>,  #...') ",
"...!~)    )...{]",
"...;{      ...^/",
"+.;^)      ).;(+",
" _:_        _:_ ",
"  <          <  ",
"                "};
